<svg xmlns="http://www.w3.org/2000/svg" viewBox="0 0 64 80" fill="none" x="0px" y="0px"><path d="M19 40C19 41.1046 18.1046 42 17 42C15.8954 42 15 41.1046 15 40C15 30.6112 22.6112 23 32 23C41.3888 23 49 30.6112 49 40C49 41.1046 48.1046 42 47 42C45.8954 42 45 41.1046 45 40C45 32.8203 39.1797 27 32 27C24.8203 27 19 32.8203 19 40Z" fill="black"/><path d="M20 19C18.8954 19 18 18.1046 18 17V15C18 13.8954 18.8954 13 20 13C21.1046 13 22 13.8954 22 15V17C22 18.1046 21.1046 19 20 19Z" fill="black"/><path d="M42 17C42 18.1046 42.8954 19 44 19C45.1046 19 46 18.1046 46 17V15C46 13.8954 45.1046 13 44 13C42.8954 13 42 13.8954 42 15V17Z" fill="black"/><path fill-rule="evenodd" clip-rule="evenodd" d="M10 3C5.58172 3 2 6.58172 2 11V45C2 49.4183 5.58172 53 10 53H12V59C12 59.8123 12.4914 60.544 13.2433 60.8513C13.9953 61.1587 14.8585 60.9806 15.4274 60.4009L22.6904 53H54C58.4183 53 62 49.4183 62 45V11C62 6.58172 58.4183 3 54 3H10ZM6 11C6 8.79086 7.79086 7 10 7H54C56.2091 7 58 8.79086 58 11V45C58 47.2091 56.2091 49 54 49H21.851C21.314 49 20.7996 49.2159 20.4235 49.5991L16 54.1066V51C16 49.8954 15.1046 49 14 49H10C7.79086 49 6 47.2091 6 45V11Z" fill="black"/> </svg>