<svg xmlns="http://www.w3.org/2000/svg" data-name="레이어 1" viewBox="0 0 100 125" x="0px" y="0px"><path d="M52.27246,40.46436a43.5851,43.5851,0,0,0-10.52734-3.6626c-3.27-.59571-5.3208-.2417-5.92969,1.023a1.831,1.831,0,0,0-.1557.96948l-4.19635,31.074-1.08008,7.9972a.49068.49068,0,0,0,.05371.46569,6.96291,6.96291,0,0,0,1.75177,1.53119c-.88721,1.59723-4.58764,7.63977-10.22345,8.5235a32.84848,32.84848,0,0,0-11.80176,4.46387l-.47412.3125,3.63233,4.21973.35791-.58594c.897-1.46875,4.55029-2.9961,8.083-4.47266,1.94335-.81152,3.95214-1.65136,5.53906-2.499,4.32971-2.31513,6.44061-7.50989,6.981-9.03137a8.76453,8.76453,0,0,0,1.96192.35949c.01025.001.021.001.03125.001a.4985.4985,0,0,0,.44055-.27039L63.94452,52.40479a1.81955,1.81955,0,0,0,.658-.72413C65.94238,48.895,59.25,43.82275,52.27246,40.46436ZM35.95215,53.458l-.01166-.00824.00726-.13Zm-9.12207,35.4834c-1.54444.82617-3.53125,1.65625-5.45264,2.459-3.45508,1.44434-6.73779,2.81641-8.145,4.34473l-2.03174-2.36035A32.61355,32.61355,0,0,1,22.12061,89.374c6.15148-.96423,10.00653-7.30841,10.94952-9.03289.08649.04083.17541.08026.26636.11932C32.8299,81.86053,30.80292,86.81848,26.83008,88.94141ZM56.61713,58.62134l-1.23432-3.1438-1.82226,2.88965-3.50782.165L52.335,61.15234l-.75073,2.73291L43.04645,72.815l-1.26178-.25152-1.37012-3.13672-1.709,2.96679-3.498.29981,2.37939,2.53516-.77685,3.331,1.29663-.57794-2.04578,2.13965a7.90045,7.90045,0,0,1-1.45569-.27234L32.3161,78.74713a6.00146,6.00146,0,0,1-.92969-.835l1.06818-7.90918.01654-.12238,1.209-.53778,3,1.75586L36.27686,67.708l2.64648-2.252L35.478,64.77148,34.10791,61.6416l-.6842,1.18488,1.22424-9.0658,2.36767,1.67584-.10888-3.41211,2.83154-2.01416-3.37256-.98095L35.59467,46.75l.82733-6.12628a13.43606,13.43606,0,0,0,2.29284,2.47345,38.21554,38.21554,0,0,0,6.20368,4.25506l-.023.03986-3.50049.29932,2.38184,2.53076L43,53.54688l3.17627-1.41211,3,1.75488L48.773,50.49951l.89361-.76031c4.27771,1.89911,8.76667,3.24127,11.73383,3.24127.22034,0,.43024-.009.63312-.02417Zm7.085-7.37427c-.77246,1.60352-7.17383.71875-15.12354-3.10791a42.59254,42.59254,0,0,1-9.206-5.79541c-2.40088-2.09326-2.9458-3.48291-2.65576-4.08545.19482-.40576.90478-.73779,2.30371-.73779a14.48624,14.48624,0,0,1,2.5459.26465,42.60153,42.60153,0,0,1,10.27246,3.58056C59.79,45.19238,64.47168,49.64453,63.70215,51.24707Z"/><path d="M50.99658,42.13135c-4.8916-2.354-9.74756-3.69678-12.68847-3.50537a.50009.50009,0,1,0,.06543.998c2.77148-.18115,7.44335,1.12452,12.18945,3.40869,5.0415,2.42676,9.2876,5.58985,10.564,7.87061A.50016.50016,0,0,0,62,50.415C60.60938,47.93115,56.29,44.67969,50.99658,42.13135Z"/><path d="M44.91357,57.52734l-1.3706-3.1289-1.7085,2.959-3.49951.29883,2.38086,2.53125L39.939,63.51172l3.17627-1.41211,3.001,1.75488-.4043-3.39062,2.647-2.25Zm1.20466,1.278-.14051-.04682.15851.0315Z"/><path d="M89.65137,23.56592c-16.64063-3.05078-27.22852,11.80176-27.334,11.95263l-.27246.39014,2.37988,1.8418.30079-.43067c.09472-.13671,9.6875-13.60107,24.74609-10.84619l.58984.1084V23.64062Zm-.58985,1.82373c-13.79492-2.17578-23.05273,8.646-24.84082,10.93847l-.79785-.61767c1.7461-2.25,11.3584-13.60205,25.63867-11.23242Z"/><path d="M44.17871,32.94727l-.23828.46728,2.74316,1.23682.2168-.42383c.0835-.16358,8.22168-16.48486-2.28076-29.74609l-.25879-.32666L41.76367,5.53564l.37256.47022C51.625,17.98584,44.25439,32.79883,44.17871,32.94727Zm-.0874-27.51661c8.80224,11.50538,3.28711,25.314,2.12012,27.91114l-.92041-.415c1.185-2.65479,6.39355-15.90869-2.00489-27.06787Z"/><path d="M40.50928,34.293l-.09375.83642,2.34863-.95751.05469-.26026c.02832-.1333,2.68066-13.38965-7.74073-17.31055l-.39746-.14941-1.40185,2.43018.58252.19287C41.82471,21.71,40.52344,34.167,40.50928,34.293ZM35.11963,17.69238C43.64551,21.2251,42.2124,31.625,41.88916,33.44873l-.31982.13037c.17041-2.8999.17236-12.4375-6.8208-15.24414Z"/><path d="M57.29694,30.6261a.48384.48384,0,0,0,.03094-.09241.47772.47772,0,0,0,.01386-.102c.00036-.015.00689-.02826.00592-.04346a.4155.4155,0,0,0-.01184-.04089.486.486,0,0,0-.03467-.11938.47392.47392,0,0,0-.024-.04908.48433.48433,0,0,0-.10254-.12463l-.01221-.0108a.21547.21547,0,0,0-.14428-.08319c-.01276-.00507-.025-.00867-.038-.01276a.48259.48259,0,0,0-.1253-.02c-.01294-.00055-.02558-.00665-.03845-.0061l-5.01368.32226a.465.465,0,0,0-.06463.0174.47035.47035,0,0,0-.06622.009c-.01069.00366-.01777.01208-.028.01642a.47577.47577,0,0,0-.089.05231.48464.48464,0,0,0-.0719.05554.492.492,0,0,0-.05743.07635.55051.55051,0,0,0-.085.27082c-.00007.01159-.00531.02172-.00458.03344a.46674.46674,0,0,0,.01843.07068.4614.4614,0,0,0,.00793.05969c.01075.03174,1.07129,3.15821.49512,5.022a2.108,2.108,0,0,1-.02148.17578l.00262.00989a.48809.48809,0,0,0,.03406.12866.52476.52476,0,0,0,.01855.06134.49574.49574,0,0,0,.03565.04773.46329.46329,0,0,0,.34015.21417.50813.50813,0,0,0,.068.01038l.00867-.00281c.00641-.00061.0122.00274.01867.00183a11.58481,11.58481,0,0,1,3.9502.30908c.00647.00336.01361.00189.02014.00494a.48843.48843,0,0,0,.21033.0517h.001l.00012-.00006.03308-.00092a.4913.4913,0,0,0,.20923-.06567c.01361-.00757.02313-.019.036-.02783a.48868.48868,0,0,0,.1394-.14716c.00684-.01092.01941-.01532.02551-.02691.00568-.01081.005-.02271.00977-.03376a.66762.66762,0,0,0,.04126-.19555c.00006-.012.00543-.02265.00464-.03485-.01563-.23-.04688-.519-.083-.84815-.14844-1.36181-.39746-3.64062.32227-4.88916C57.29022,30.656,57.29041,30.64044,57.29694,30.6261Zm-1.33112,5.04138.00751.07031a15.10791,15.10791,0,0,0-3.01642-.1856,11.50913,11.50913,0,0,0-.45886-4.351l3.585-.23047A12.36243,12.36243,0,0,0,55.96582,35.66748Z"/><path d="M78.57208,19.34943a.48734.48734,0,0,0,.042.09173c.00751.01245.009.02686.01777.03882s.02276.01636.03228.02734a.48279.48279,0,0,0,.10926.09247.469.469,0,0,0,.06872.04022c.0116.005.01978.01453.03192.01868A13.17783,13.17783,0,0,1,82.249,21.229a.47511.47511,0,0,0,.05152.03559.46831.46831,0,0,0,.053.0484c.009.00537.0194.00317.02862.00793a.44623.44623,0,0,0,.44568.00733,1311.11593,1311.11593,0,0,1,.12823-.08167.47868.47868,0,0,0,.05146-.07355c.00927-.01257.02435-.01776.03253-.03143.09277-.15478.19922-.354.31934-.58105.51269-.96778,1.28808-2.42969,2.47949-2.97022a.47116.47116,0,0,0,.053-.03821.46183.46183,0,0,0,.0498-.03588.49283.49283,0,0,0,.16089-.21619l.00488-.00659a.47373.47373,0,0,0,.00989-.08094.48345.48345,0,0,0,.01251-.1029.48842.48842,0,0,0-.02606-.11267.47257.47257,0,0,0-.01587-.06873l-.00537-.00744a.50239.50239,0,0,0-.066-.09168.49662.49662,0,0,0-.05023-.06537.51385.51385,0,0,0-.06659-.04059.50081.50081,0,0,0-.09943-.05719l-.00927-.00531-4.6045-1.53857c-.01025-.00336-.02057-.001-.03088-.00372-.01062-.00287-.01874-.0102-.02966-.01239a.48143.48143,0,0,0-.07276.00012.49161.49161,0,0,0-.09039.00018.47846.47846,0,0,0-.11133.03089.487.487,0,0,0-.06421.02691.44259.44259,0,0,0-.20062.21686.4657.4657,0,0,0-.033.05658c-.0036.01093-.00116.02191-.004.0329-.00262.01013-.00952.01776-.01159.02814a6.24306,6.24306,0,0,1-1.7959,3.28271,131.87875,131.87875,0,0,0-.10132.11035.4826.4826,0,0,0-.05274.09015.46743.46743,0,0,0-.02465.04218c-.00464.01348-.002.027-.00537.04058a.48561.48561,0,0,0-.01362.10279.47657.47657,0,0,0,.0033.092A.48862.48862,0,0,0,78.57208,19.34943ZM81.38,16.24066l3.1211,1.04291a9.43532,9.43532,0,0,0-2.02551,2.80823l-.02686.05047a15.19675,15.19675,0,0,0-2.47687-1.15008A7.50239,7.50239,0,0,0,81.38,16.24066Z"/><path d="M50.21924,5.16162a11.566,11.566,0,0,1,.49707,3.92969c-.00348.01214-.00037.02405-.00287.03619a.667.667,0,0,0-.00061.19879c.00238.012-.00079.02356.0025.03553.00293.01062.0138.01532.0174.02557a.49129.49129,0,0,0,.16082.2359c.00654.00507.01441.00617.02118.01093a.44918.44918,0,0,0,.28254.0943.49725.49725,0,0,0,.13281-.01807c.22265-.06152.498-.15039.81347-.25195,1.30274-.42188,3.48438-1.12647,4.85352-.67481a.48442.48442,0,0,0,.129.01593c.01025.00061.01794.00946.02826.00946.00757,0,.01538-.00274.023-.00311a.46513.46513,0,0,0,.05218-.00708.48782.48782,0,0,0,.05768-.00787c.01428-.00391.02441-.01416.03809-.01923a.47833.47833,0,0,0,.23-.176.48654.48654,0,0,0,.05065-.08935c.00641-.01459.01795-.02521.02308-.04059.00476-.01434.00177-.02869.00518-.04309a.53215.53215,0,0,0,.0058-.19995c-.00274-.0155.0011-.03052-.00317-.046L56.30566,3.33252a.47553.47553,0,0,0-.03186-.06305A.46787.46787,0,0,0,56.25293,3.21c-.00549-.00928-.01477-.01422-.02075-.023a.47541.47541,0,0,0-.07227-.08014.4926.4926,0,0,0-.06524-.05633.82375.82375,0,0,0-.17609-.07148.49837.49837,0,0,0-.09186-.00531.48561.48561,0,0,0-.10327.007c-.01117.00226-.02185-.00079-.033.0022a.46537.46537,0,0,0-.05939.02991.47388.47388,0,0,0-.06268.02185c-.02832.01709-2.877,1.68115-4.81787,1.501a.44727.44727,0,0,0-.1344.0116c-.0141.0025-.02777-.00116-.04187.00256l-.00263.00129a.481.481,0,0,0-.154.07611c-.00708.005-.01629.00714-.02307.01251a.50553.50553,0,0,0-.07605.0871.496.496,0,0,0-.05041.06146.5241.5241,0,0,0-.02417.06976.4872.4872,0,0,0-.03583.11749l-.003.00983a.47344.47344,0,0,0,.00848.08173A.479.479,0,0,0,50.21924,5.16162Zm5.289-.9552L56.46,7.67029a12.30937,12.30937,0,0,0-4.62408.83655l-.06671.02136a15.07684,15.07684,0,0,0-.42841-2.991A11.51833,11.51833,0,0,0,55.50824,4.20642Z"/><path d="M84.1543,37.01465A11.16759,11.16759,0,0,0,74.079,38.8139c-6.71161-1.34-9.846,2.02356-9.97839,2.169l-.25.27832,1.32226,2.14648.44629-.40917c1.535-1.40839,4.38776-1.76441,5.86414-1.85407a3.29531,3.29531,0,0,0-.06629,2.57428,4.48046,4.48046,0,0,0,4.14844,2.74658,4.16942,4.16942,0,0,0,.9082-.09863,3.48125,3.48125,0,0,0,2.36621-1.72119,3.28235,3.28235,0,0,0,.1543-2.75879,4.13147,4.13147,0,0,0-1.47449-1.86585c1.43683-.5064,4.22071-1.27679,6.46082-.61608l.71289.21044-.249-2.49121Zm-8.00879,2.46924a.49974.49974,0,0,0-.24805.66211.47937.47937,0,0,0,.13068.14978l.00055.00061a.465.465,0,0,0,.129.08606c.013.00671.02186.01812.03565.0238a3.29056,3.29056,0,0,1,1.86523,1.8335A2.30133,2.30133,0,0,1,77.96,44.16992a2.49581,2.49581,0,0,1-1.70312,1.2207,3.4581,3.4581,0,0,1-3.9043-2.0249,2.25991,2.25991,0,0,1,.42352-2.37744.49722.49722,0,0,0,.12262-.1922.48456.48456,0,0,0,.01557-.07519.52538.52538,0,0,0,.02032-.09833c.00006-.00409-.00214-.00745-.00214-.01154a.35527.35527,0,0,0-.07635-.24945.4971.4971,0,0,0-.07184-.10217l-.00592-.00842a.4685.4685,0,0,0-.05835-.03656.48587.48587,0,0,0-.09747-.06116.48058.48058,0,0,0-.11017-.02429.46891.46891,0,0,0-.069-.0152c-.19141-.00537-4.51074-.05957-7.03516,1.769l-.29785-.48291c.84766-.73047,3.7002-2.6914,8.96582-1.57178a.48306.48306,0,0,0,.254-.02093,1.15644,1.15644,0,0,0,.12787-.05542.47393.47393,0,0,0,.06445-.03058,10.27827,10.27827,0,0,1,8.99024-1.86377l.042.4209C80.18945,37.66406,76.31934,39.4043,76.14551,39.48389Z"/><path d="M74.4082,40.48584a1.95005,1.95005,0,0,0-1.31543.98291,2.26878,2.26878,0,0,0-.08593,1.88037,2.74982,2.74982,0,0,0,2.49609,1.79541,2.22972,2.22972,0,0,0,.49121-.05371,1.95081,1.95081,0,0,0,1.31543-.98242,2.27,2.27,0,0,0,.08594-1.88086A2.68948,2.68948,0,0,0,74.4082,40.48584ZM76.46,42.58008a1.27467,1.27467,0,0,1-.03027,1.05273.95092.95092,0,0,1-.65235.48242,1.71692,1.71692,0,0,1-1.835-1.11865,1.27476,1.27476,0,0,1,.03028-1.05273.94893.94893,0,0,1,.65234-.48194,1.1921,1.1921,0,0,1,.26367-.0288A1.783,1.783,0,0,1,76.46,42.58008Z"/><path d="M59.06152,18.26221a3.94836,3.94836,0,0,0,1.86231.481,3.61893,3.61893,0,0,0,1.22735-.22082c-.311,1.67517-1.1643,5.12506-3.11407,6.76477l-.46387.38965L60.74316,27.438l.3086-.2124c.1878-.1297,4.56915-3.25867,4.009-11.27967A13.05111,13.05111,0,0,0,68.69727,4.5083L68.626,4.20654l-2.6875-.62842.11621.73487c.44824,2.81964-.97675,6.08227-1.78192,7.64483a4.80328,4.80328,0,0,0-2.00422-2.10723,3.77536,3.77536,0,0,0-3.17089-.23487A4.00935,4.00935,0,0,0,56.78027,12.063,5.195,5.195,0,0,0,59.06152,18.26221Zm-1.34179-5.85742a3.026,3.026,0,0,1,1.73535-1.85547,2.79091,2.79091,0,0,1,2.34277.1831,3.96359,3.96359,0,0,1,1.89722,2.49744.492.492,0,0,0,.22388.34729.49948.49948,0,0,0,.68945-.16016c.11914-.19189,2.77441-4.50683,2.51465-8.53467l.65527.15284a12.33563,12.33563,0,0,1-3.55566,10.34912.473.473,0,0,0-.04383.0675c-.00988.01123-.01532.02515-.02417.03729a.50025.50025,0,0,0-.04266.07587.48584.48584,0,0,0-.05634.25586c.51661,6.478-2.34179,9.53076-3.28515,10.35156l-.65137-.52881c2.55274-2.626,3.15234-7.73584,3.17774-7.96386a.46911.46911,0,0,0-.0069-.07758.321.321,0,0,0-.05591-.2066.46715.46715,0,0,0-.03-.06543l-.0083-.00763a2.47058,2.47058,0,0,0-.14587-.1297.51426.51426,0,0,0-.07056-.02551.498.498,0,0,0-.11328-.03638l-.01062-.00342a.44831.44831,0,0,0-.13562.00879c-.01209.00195-.02417-.00055-.0362.00232a.4702.4702,0,0,0-.17651.08057l-.00128.00061-.01709.00909-.00122.00061a2.74823,2.74823,0,0,1-2.95532.15094A4.16687,4.16687,0,0,1,57.71973,12.40479Z"/><path d="M61.02832,16.7959a2.34254,2.34254,0,0,0,.84082-.15235,2.21035,2.21035,0,0,0,1.29688-1.334,3.07529,3.07529,0,0,0-1.53809-3.645,2.583,2.583,0,0,0-2.13574-.18115,2.20773,2.20773,0,0,0-1.29492,1.33349,3.11446,3.11446,0,0,0,1.53711,3.64454A2.75524,2.75524,0,0,0,61.02832,16.7959Zm-1.8916-3.63721a1.20806,1.20806,0,0,1,.71387-.7417,1.3497,1.3497,0,0,1,.48437-.08642,1.757,1.757,0,0,1,.82227.21631v.00048a2.11632,2.11632,0,0,1,1.06933,2.42041,1.2095,1.2095,0,0,1-.71484.7417,1.58408,1.58408,0,0,1-1.30664-.12988A2.11585,2.11585,0,0,1,59.13672,13.15869Z"/><path d="M68.46442,22.70129l.00531.01258a.49992.49992,0,0,0,.69433.13232c1.09473-.74512,3.63965-2.07812,4.59473-1.98242.00738.00055.0144-.00287.02179-.00269.00964.00055.01825.00513.028.00513a.49937.49937,0,0,0,.07129-.00488.47308.47308,0,0,0,.05329-.01892c.01233-.00354.02343-.00818.03546-.01258a.48632.48632,0,0,0,.14441-.07635l.01281-.01154a.49052.49052,0,0,0,.10535-.12011.47518.47518,0,0,0,.02655-.05463.48052.48052,0,0,0,.038-.11646c.00213-.01178.00964-.02111.01086-.03326a.47408.47408,0,0,0-.00561-.05817.468.468,0,0,0,.00366-.06341c-.19239-1.356-.19043-3.52051.417-4.08838l.00207-.00293.05262-.05078a.50013.50013,0,0,0-.71094-.70361c-.02246.02294-2.293,2.27246-3.90137,1.17089l-.014-.00586a.49538.49538,0,0,0-.097-.0404.50293.50293,0,0,0-.08581-.03009c-.0058-.001-.01026-.00488-.01612-.00568a.47318.47318,0,0,0-.07489.00507.49351.49351,0,0,0-.10669.0072,1.28056,1.28056,0,0,0-.17627.08.50581.50581,0,0,0-.04986.04852.47722.47722,0,0,0-.07471.07263c-.0036.00531-.00378.01166-.0072.01709a1.80715,1.80715,0,0,0-.06989.18164l-.00494.01367a34.93725,34.93725,0,0,1-1.0332,5.18116A.49747.49747,0,0,0,68.46442,22.70129Zm1.81366-4.91961a2.74561,2.74561,0,0,0,.884.14947,4.35,4.35,0,0,0,2.12067-.65423,11.52,11.52,0,0,0-.02985,2.6214A12.62975,12.62975,0,0,0,69.613,21.40411C69.88928,20.24591,70.14227,18.6825,70.27808,17.78168Z"/></svg>