<svg id="wRe43-19Kh" viewBox="0 0 369.96969696969694 53.03030303030303" height="53.03030303030303" width="369.96969696969694"><defs id="SvgjsDefs2021"><linearGradient id="SvgjsLinearGradient2026"><stop id="SvgjsStop2027" stop-color="#905e26" offset="0"></stop><stop id="SvgjsStop2028" stop-color="#f5ec9b" offset="0.5"></stop><stop id="SvgjsStop2029" stop-color="#905e26" offset="1"></stop></linearGradient><linearGradient id="SvgjsLinearGradient2030"><stop id="SvgjsStop2031" stop-color="#905e26" offset="0"></stop><stop id="SvgjsStop2032" stop-color="#f5ec9b" offset="0.5"></stop><stop id="SvgjsStop2033" stop-color="#905e26" offset="1"></stop></linearGradient></defs><g id="SvgjsG2022" transform="matrix(0.855327468230694,0,0,0.855327468230694,-0.855327468230694,-0.855327468230694)" fill="url(#SvgjsLinearGradient2026)"><g xmlns="http://www.w3.org/2000/svg"><path d="M60.465,33C57.451,33,55,35.452,55,38.465c0,2.964-2.344,5.384-5.274,5.522C48.459,42.184,46.366,41,44,41   c-2.548,0-4.775,1.373-6,3.413c-0.708-1.18-1.751-2.132-3-2.728V35h15.618l-0.724-1.447C48.001,29.765,47,25.525,47,21.292v-0.584   c0-4.233,1.001-8.473,2.895-12.261L50.618,7H35V4c0-1.654-1.346-3-3-3s-3,1.346-3,3v3H16.382l-0.276,0.553   C14.074,11.617,13,16.166,13,20.708v0.584c0,4.542,1.074,9.091,3.105,13.155L16.382,35H29v6.685c-1.249,0.596-2.292,1.548-3,2.728   C24.775,42.373,22.548,41,20,41c-2.201,0-4.165,1.023-5.449,2.617C12.436,42.804,11,40.78,11,38.465V30c0-3.86-3.141-7-7-7   c-1.654,0-3,1.346-3,3v0.618l1.316,0.658C3.972,28.104,5,29.768,5,31.618c0,0.749-0.178,1.5-0.513,2.17l-1.669,3.338   C1.629,39.507,1,42.171,1,44.831v0.942c0,4.264,1.57,8.356,4.422,11.524C8.685,60.921,13.352,63,18.227,63H48   c7.168,0,13-5.832,13-13v-7.859c0-1.856,0.544-3.654,1.574-5.199C62.853,36.523,63,36.037,63,35.535C63,34.137,61.862,33,60.465,33   z M44,43c2.757,0,5,2.243,5,5s-2.243,5-5,5s-5-2.243-5-5S41.243,43,44,43z M39.435,33h-5.796C31.917,29.354,31,25.322,31,21.292   v-0.584c0-4.03,0.917-8.062,2.638-11.708h5.796C37.84,12.683,37,16.697,37,20.708v0.584C37,25.303,37.84,29.317,39.435,33z    M29,20.708v0.584c0,4.011,0.84,8.025,2.435,11.708h-5.796C23.917,29.354,23,25.322,23,21.292v-0.584   c0-4.03,0.917-8.062,2.638-11.708h5.796C29.84,12.683,29,16.697,29,20.708z M45,20.708v0.584c0,4.01,0.837,8.026,2.432,11.708   h-5.793C39.917,29.354,39,25.322,39,21.292v-0.584c0-4.03,0.917-8.062,2.638-11.708h5.793C45.837,12.682,45,16.698,45,20.708z    M31,4c0-0.551,0.448-1,1-1s1,0.449,1,1v3h-2V4z M15,21.292v-0.584c0-4.029,0.906-8.063,2.626-11.708h5.809   C21.84,12.683,21,16.697,21,20.708v0.584c0,4.011,0.84,8.025,2.435,11.708h-5.809C15.906,29.355,15,25.321,15,21.292z M31,35h2   v6.08C32.672,41.033,32.34,41,32,41s-0.672,0.033-1,0.08V35z M32,43c2.757,0,5,2.243,5,5s-2.243,5-5,5s-5-2.243-5-5   S29.243,43,32,43z M20,43c2.757,0,5,2.243,5,5s-2.243,5-5,5s-5-2.243-5-5S17.243,43,20,43z M60.91,35.832   C59.66,37.707,59,39.889,59,42.141V50c0,6.065-4.935,11-11,11H18.227c-4.309,0-8.435-1.837-11.318-5.041   C4.388,53.159,3,49.542,3,45.773v-0.942c0-2.351,0.556-4.705,1.607-6.81l1.669-3.338C6.75,33.736,7,32.676,7,31.618   c0-2.613-1.452-4.962-3.789-6.131l-0.053-0.026C3.336,25.184,3.646,25,4,25c2.757,0,5,2.243,5,5v8.465   c0,3.037,1.808,5.724,4.518,6.904C13.186,46.182,13,47.069,13,48c0,3.86,3.141,7,7,7c2.548,0,4.775-1.373,6-3.413   C27.225,53.627,29.452,55,32,55s4.775-1.373,6-3.413C39.225,53.627,41.452,55,44,55c3.859,0,7-3.14,7-7   c0-0.734-0.115-1.441-0.325-2.106C54.255,45.312,57,42.207,57,38.465C57,36.554,58.555,35,60.465,35C60.76,35,61,35.24,61,35.535   C61,35.641,60.969,35.744,60.91,35.832z"></path><path d="M32,51c1.654,0,3-1.346,3-3s-1.346-3-3-3s-3,1.346-3,3S30.346,51,32,51z M32,47c0.552,0,1,0.449,1,1s-0.448,1-1,1   s-1-0.449-1-1S31.448,47,32,47z"></path><path d="M44,51c1.654,0,3-1.346,3-3s-1.346-3-3-3s-3,1.346-3,3S42.346,51,44,51z M44,47c0.552,0,1,0.449,1,1s-0.448,1-1,1   s-1-0.449-1-1S43.448,47,44,47z"></path><path d="M20,51c1.654,0,3-1.346,3-3s-1.346-3-3-3s-3,1.346-3,3S18.346,51,20,51z M20,47c0.552,0,1,0.449,1,1s-0.448,1-1,1   s-1-0.449-1-1S19.448,47,20,47z"></path></g></g><g id="SvgjsG2023" transform="matrix(1.0142408106235186,0,0,1.0142408106235186,70.2006956141655,1.086803466744465)" fill="url(#SvgjsLinearGradient2030)"><path d="M22.84 11.440000000000001 l0 5.28 l-13.8 0 l0 6.6 l11.96 0 l0 4.88 l-11.96 0 l0 11.8 l-6.28 0 l0 -28.56 l20.08 0 z M39.28 10.760000000000002 c4.2132 0 7.6068 1.4 10.18 4.2 s3.86 6.4268 3.86 10.88 c0 4.3468 -1.2933 7.9068 -3.88 10.68 s-5.9732 4.16 -10.16 4.16 c-4.2132 0 -7.6068 -1.3867 -10.18 -4.16 s-3.86 -6.3332 -3.86 -10.68 c0 -4.4268 1.2933 -8.0468 3.88 -10.86 s5.9732 -4.22 10.16 -4.22 z M31.52 25.84 c0 2.88 0.67996 5.1932 2.04 6.94 s3.2667 2.62 5.72 2.62 c2.4 0 4.2932 -0.86 5.68 -2.58 s2.08 -4.0468 2.08 -6.98 c0 -3.0667 -0.68668 -5.4668 -2.06 -7.2 s-3.2866 -2.6 -5.74 -2.6 c-2.4 0 -4.2868 0.86668 -5.66 2.6 s-2.06 4.1332 -2.06 7.2 z M78.56 10.760000000000002 c3.4933 0 6.2732 0.80004 8.34 2.4 s3.1 3.8667 3.1 6.8 l-6.08 0 c-0.08 -1.44 -0.56668 -2.52 -1.46 -3.24 s-2.2733 -1.08 -4.14 -1.08 c-1.3067 0 -2.36 0.28668 -3.16 0.86 s-1.2 1.3666 -1.2 2.38 c0 0.82668 0.24668 1.4267 0.74 1.8 s1.1933 0.70664 2.1 0.99996 s2.4934 0.72 4.76 1.28 c2.3733 0.58668 4.2 1.2267 5.48 1.92 s2.2533 1.58 2.92 2.66 s1 2.4067 1 3.98 c0 1.8133 -0.48 3.4266 -1.44 4.84 s-2.36 2.4866 -4.2 3.22 s-3.92 1.1 -6.24 1.1 c-3.5467 0 -6.46 -0.88668 -8.74 -2.66 s-3.42 -4.2068 -3.42 -7.3 l0 -0.2 l6.08 0 c0 1.68 0.57332 2.98 1.72 3.9 s2.6667 1.38 4.56 1.38 c1.68 0 3.0333 -0.3 4.06 -0.9 s1.54 -1.4867 1.54 -2.66 c0 -0.77332 -0.28 -1.4266 -0.84 -1.96 s-1.3067 -0.96664 -2.24 -1.3 s-2.5066 -0.75332 -4.72 -1.26 c-2.56 -0.64 -4.4268 -1.32 -5.6 -2.04 s-2.0666 -1.5933 -2.68 -2.62 s-0.92 -2.26 -0.92 -3.7 c0 -1.7867 0.51332 -3.3467 1.54 -4.68 s2.3667 -2.32 4.02 -2.96 s3.36 -0.96 5.12 -0.96 z M104.00000000000001 18.76 c2.8 0 5.08 0.71328 6.84 2.14 s2.72 3.3267 2.88 5.7 l-5.56 0 c-0.37332 -2.3733 -1.7733 -3.56 -4.2 -3.56 c-1.4933 0 -2.6733 0.61332 -3.54 1.84 s-1.3 2.8534 -1.3 4.88 c0 1.9467 0.41332 3.52 1.24 4.72 s1.9867 1.8 3.48 1.8 c2.5867 0 4.0932 -1.4 4.52 -4.2 l5.48 0 c-0.37332 2.7467 -1.4333 4.8468 -3.18 6.3 s-4.0068 2.18 -6.78 2.18 c-3.0667 0 -5.5732 -0.98 -7.52 -2.94 s-2.92 -4.5132 -2.92 -7.66 c0 -3.4133 0.96 -6.1332 2.88 -8.16 s4.48 -3.04 7.68 -3.04 z M126.56000000000003 18.76 c6.0268 0.02668 9.04 1.9866 9.04 5.88 l0 10.96 c0 2.0267 0.24 3.4934 0.72 4.4 l-5.76 0 c-0.21332 -0.64 -0.34664 -1.3067 -0.39996 -2 c-1.68 1.7067 -4 2.56 -6.96 2.56 c-2.16 0 -3.8733 -0.54668 -5.14 -1.64 s-1.9 -2.6133 -1.9 -4.56 c0 -1.8933 0.6 -3.36 1.8 -4.4 c1.2267 -1.0933 3.4534 -1.7866 6.68 -2.08 c2.2933 -0.24 3.7466 -0.54 4.36 -0.9 s0.92 -0.91332 0.92 -1.66 c0 -0.93332 -0.28 -1.6266 -0.84 -2.08 s-1.4933 -0.68 -2.8 -0.68 c-1.2 0 -2.1067 0.24668 -2.72 0.74 s-0.97332 1.2866 -1.08 2.38 l-5.68 0 c0.13332 -2.2667 1.0666 -3.9867 2.8 -5.16 s4.0532 -1.76 6.96 -1.76 z M121.84000000000002 34.12 c0 1.76 1.16 2.64 3.48 2.64 c3.04 -0.02668 4.5732 -1.5867 4.6 -4.68 l0 -2.2 c-0.45332 0.45332 -1.6 0.78664 -3.44 0.99996 c-1.6 0.18668 -2.7733 0.51336 -3.52 0.98004 s-1.12 1.22 -1.12 2.26 z M151.88000000000002 18.76 c2.64 0 4.5532 0.66676 5.74 2.0001 s1.78 3.4533 1.78 6.36 l0 12.88 l-5.68 0 l0 -11.72 c0 -1.7067 -0.27332 -2.9734 -0.82 -3.8 s-1.4867 -1.24 -2.82 -1.24 c-1.5467 0 -2.6667 0.46668 -3.36 1.4 s-1.04 2.4666 -1.04 4.6 l0 10.76 l-5.68 0 l0 -20.68 l5.4 0 l0 2.88 l0.12 0 c1.4133 -2.2933 3.5333 -3.44 6.36 -3.44 z M183.88000000000002 11.440000000000001 l0 28.56 l-5.4 0 l0 -2.64 l-0.08 0 c-1.2267 2.1333 -3.32 3.2 -6.28 3.2 c-2.8533 0 -5.1132 -1.04 -6.78 -3.12 s-2.5 -4.7332 -2.5 -7.96 c0 -3.1467 0.84668 -5.72 2.54 -7.72 s3.9 -3 6.62 -3 c1.2533 0 2.4333 0.26 3.54 0.78 s1.9667 1.2867 2.58 2.3 l0.08 0 l0 -10.4 l5.68 0 z M168.52000000000004 29.64 c0 1.8933 0.44664 3.4733 1.34 4.74 s2.1133 1.9 3.66 1.9 c1.6267 0 2.8467 -0.59332 3.66 -1.78 s1.22 -2.82 1.22 -4.9 s-0.42668 -3.6933 -1.28 -4.84 s-2.0666 -1.72 -3.64 -1.72 c-1.6267 0 -2.86 0.6 -3.7 1.8 s-1.26 2.8 -1.26 4.8 z M194.00000000000003 11.440000000000001 l0 4.68 l-5.68 0 l0 -4.68 l5.68 0 z M194.00000000000003 19.32 l0 20.68 l-5.68 0 l0 -20.68 l5.68 0 z M210.36 18.76 c2.64 0 4.5532 0.66676 5.74 2.0001 s1.78 3.4533 1.78 6.36 l0 12.88 l-5.68 0 l0 -11.72 c0 -1.7067 -0.27332 -2.9734 -0.82 -3.8 s-1.4867 -1.24 -2.82 -1.24 c-1.5467 0 -2.6667 0.46668 -3.36 1.4 s-1.04 2.4666 -1.04 4.6 l0 10.76 l-5.68 0 l0 -20.68 l5.4 0 l0 2.88 l0.12 0 c1.4133 -2.2933 3.5333 -3.44 6.36 -3.44 z M231.72000000000003 18.76 c6.0268 0.02668 9.04 1.9866 9.04 5.88 l0 10.96 c0 2.0267 0.24 3.4934 0.72 4.4 l-5.76 0 c-0.21332 -0.64 -0.34664 -1.3067 -0.39996 -2 c-1.68 1.7067 -4 2.56 -6.96 2.56 c-2.16 0 -3.8733 -0.54668 -5.14 -1.64 s-1.9 -2.6133 -1.9 -4.56 c0 -1.8933 0.6 -3.36 1.8 -4.4 c1.2267 -1.0933 3.4534 -1.7866 6.68 -2.08 c2.2933 -0.24 3.7466 -0.54 4.36 -0.9 s0.92 -0.91332 0.92 -1.66 c0 -0.93332 -0.28 -1.6266 -0.84 -2.08 s-1.4933 -0.68 -2.8 -0.68 c-1.2 0 -2.1067 0.24668 -2.72 0.74 s-0.97332 1.2866 -1.08 2.38 l-5.68 0 c0.13332 -2.2667 1.0666 -3.9867 2.8 -5.16 s4.0532 -1.76 6.96 -1.76 z M227.00000000000003 34.12 c0 1.76 1.16 2.64 3.48 2.64 c3.04 -0.02668 4.5732 -1.5867 4.6 -4.68 l0 -2.2 c-0.45332 0.45332 -1.6 0.78664 -3.44 0.99996 c-1.6 0.18668 -2.7733 0.51336 -3.52 0.98004 s-1.12 1.22 -1.12 2.26 z M249.16000000000003 19.32 l4.36 14.12 l0.08 0 l4.36 -14.12 l5.64 0 l-7 20.68 l-6.32 0 l-7.08 -20.68 l5.96 0 z M271.8 11.440000000000001 l0 4.68 l-5.68 0 l0 -4.68 l5.68 0 z M271.8 19.32 l0 20.68 l-5.68 0 l0 -20.68 l5.68 0 z M285.8 18.76 c6.0268 0.02668 9.04 1.9866 9.04 5.88 l0 10.96 c0 2.0267 0.24 3.4934 0.72 4.4 l-5.76 0 c-0.21332 -0.64 -0.34664 -1.3067 -0.39996 -2 c-1.68 1.7067 -4 2.56 -6.96 2.56 c-2.16 0 -3.8733 -0.54668 -5.14 -1.64 s-1.9 -2.6133 -1.9 -4.56 c0 -1.8933 0.6 -3.36 1.8 -4.4 c1.2267 -1.0933 3.4534 -1.7866 6.68 -2.08 c2.2933 -0.24 3.7466 -0.54 4.36 -0.9 s0.92 -0.91332 0.92 -1.66 c0 -0.93332 -0.28 -1.6266 -0.84 -2.08 s-1.4933 -0.68 -2.8 -0.68 c-1.2 0 -2.1067 0.24668 -2.72 0.74 s-0.97332 1.2866 -1.08 2.38 l-5.68 0 c0.13332 -2.2667 1.0666 -3.9867 2.8 -5.16 s4.0532 -1.76 6.96 -1.76 z M281.08 34.12 c0 1.76 1.16 2.64 3.48 2.64 c3.04 -0.02668 4.5732 -1.5867 4.6 -4.68 l0 -2.2 c-0.45332 0.45332 -1.6 0.78664 -3.44 0.99996 c-1.6 0.18668 -2.7733 0.51336 -3.52 0.98004 s-1.12 1.22 -1.12 2.26 z"></path></g></svg>